<?xml version="1.0" encoding="utf-8"?>
<!-- Generator: Adobe Illustrator 16.0.0, SVG Export Plug-In . SVG Version: 6.00 Build 0)  -->
<!DOCTYPE svg PUBLIC "-//W3C//DTD SVG 1.1//EN" "http://www.w3.org/Graphics/SVG/1.1/DTD/svg11.dtd">
<svg version="1.1" id="Layer_1" xmlns="http://www.w3.org/2000/svg" xmlns:xlink="http://www.w3.org/1999/xlink" x="100px" y="0px"
	 width="500x" height="500px" viewBox="0 0 2012 2092" enable-background="new 0 0 612 792" xml:space="preserve">
<g id="Layer_1_1_" display="none">
	
		<image display="inline" overflow="visible" enable-background="new    " width="305" height="336" xlink:href="8F89EA91.png"  transform="matrix(0.9999 0 0 0.9999 153.9995 228)">
	</image>
</g>
<g id="Layer_2">
	<g enable-background="new    ">
		<path d="M166.696,504.771c-0.246-4.399-0.642-10.294-1.191-17.688c-0.55-7.393-1.163-15.06-1.833-23.004
			c-0.673-7.942-1.375-15.458-2.108-22.547c-0.733-7.085-1.346-12.584-1.833-16.496c0-1.587,0.733-2.627,2.2-3.116
			c1.466-0.487,2.87-0.733,4.216-0.733c1.71,0,3.511,0.489,5.407,1.466c1.893,0.979,3.085,2.323,3.575,4.033
			c0,0.489,0.06,1.375,0.183,2.657c0.12,1.283,0.212,2.598,0.275,3.941c0.06,1.346,0.152,2.658,0.275,3.941
			c0.121,1.282,0.184,2.171,0.184,2.657c0,0.733,0,1.283,0,1.649c0,0.367,0,0.705,0,1.009c0,0.307,0.06,0.642,0.183,1.008
			c0.12,0.367,0.304,0.979,0.55,1.833c0.244-0.243,0.519-0.55,0.825-0.916c0.304-0.367,0.519-0.61,0.642-0.733
			c1.954-2.81,3.85-5.284,5.683-7.424c1.833-2.137,3.726-4.153,5.682-6.049c1.953-1.894,4.125-3.909,6.507-6.049
			c2.383-2.137,5.161-4.611,8.34-7.424c0.733-0.61,1.283-1.068,1.65-1.375c0.367-0.304,0.702-0.55,1.008-0.733
			c0.304-0.183,0.642-0.303,1.008-0.366c0.367-0.061,0.854-0.092,1.467-0.092c2.076,0,4.184,0.705,6.324,2.108
			c2.137,1.406,3.208,3.331,3.208,5.773c0,0.856-0.306,1.741-0.917,2.658c-0.613,0.916-1.346,1.772-2.199,2.566
			c-0.856,0.796-1.742,1.498-2.658,2.107c-0.917,0.613-1.741,1.04-2.475,1.283c-3.179,2.813-6.539,6.021-10.081,9.623
			c-3.546,3.606-6.845,7.487-9.898,11.64c-3.056,4.156-5.562,8.495-7.515,13.015c-1.957,4.522-2.933,9.045-2.933,13.564
			c0,4.155,0.304,8.248,0.917,12.281c0.61,4.032,0.917,8.128,0.917,12.281v6.415c-0.979,0.979-1.833,1.773-2.566,2.383
			c-0.733,0.613-1.773,0.917-3.116,0.917c-2.08,0-4.096-0.886-6.049-2.658C168.589,508.409,167.307,506.604,166.696,504.771z"/>
		<path d="M300.506,460.596c-0.246,2.2-0.521,3.912-0.825,5.133c-0.307,1.223-0.825,2.322-1.558,3.299
			c-0.733,0.979-1.773,1.988-3.116,3.024c-1.346,1.04-3.179,2.507-5.499,4.399c-2.323,1.896-5.195,4.371-8.615,7.424
			c-3.422,3.056-7.578,7.028-12.464,11.915c-1.956,1.833-3.972,3.729-6.049,5.682c-2.079,1.956-4.248,3.698-6.507,5.225
			c-2.262,1.529-4.614,2.781-7.057,3.758c-2.446,0.979-5.012,1.466-7.699,1.466c-5.256,0-9.105-1.77-11.548-5.315
			c-2.446-3.543-3.666-7.636-3.666-12.281c0-3.053,0.091-5.619,0.275-7.698c0.183-2.077,0.642-4.767,1.375-8.065
			c-1.346-1.221-2.506-2.291-3.482-3.208c-0.979-0.916-1.467-2.168-1.467-3.758c0-1.466,0.335-2.442,1.008-2.933
			c0.67-0.487,1.466-0.825,2.383-1.008c0.917-0.184,1.802-0.396,2.658-0.642c0.854-0.244,1.466-0.733,1.833-1.467
			c0.243-0.733,0.702-2.076,1.375-4.032c0.67-1.953,1.375-4.001,2.108-6.141c0.733-2.137,1.435-4.153,2.108-6.049
			c0.67-1.894,1.128-3.208,1.375-3.941c0.854-2.076,1.801-4.185,2.841-6.323c1.037-2.137,2.26-4.062,3.666-5.774
			c1.404-1.71,3.053-3.116,4.949-4.216c1.893-1.1,4.125-1.649,6.69-1.649c1.467,0,3.268,0.673,5.408,2.016
			c2.136,1.347,4.184,2.965,6.14,4.857c1.954,1.896,3.603,3.881,4.949,5.958c1.343,2.079,2.017,3.849,2.017,5.315
			c0,1.833-0.43,3.514-1.283,5.041c-0.856,1.529-1.925,2.933-3.208,4.216c-1.283,1.283-2.658,2.475-4.124,3.574
			s-2.813,2.14-4.033,3.116c-0.123,0-0.367,0.123-0.733,0.366c-0.367,0.246-0.673,0.43-0.917,0.55
			c-0.124,0.123-0.398,0.398-0.825,0.825c-0.43,0.43-0.888,0.888-1.375,1.375c-0.49,0.489-0.948,0.979-1.375,1.466
			c-0.43,0.49-0.705,0.797-0.825,0.917c-0.367,0.366-1.071,0.948-2.108,1.741c-1.04,0.796-2.171,1.649-3.391,2.566
			c-1.223,0.916-2.354,1.772-3.391,2.565c-1.04,0.797-1.741,1.315-2.108,1.559l-0.733,1.467c-0.246,0.489-0.458,1.558-0.642,3.207
			c-0.183,1.65-0.398,3.515-0.641,5.591c-0.247,2.079-0.458,4.188-0.642,6.324c-0.184,2.14-0.275,3.881-0.275,5.224
			c0,0.123,0.06,0.246,0.183,0.367c0.244,0.246,0.427,0.366,0.55,0.366c0.977,0,1.893-0.427,2.75-1.283
			c0.854-0.854,1.77-1.466,2.75-1.833l29.328-27.128l7.515-11.549c0.61-0.854,1.802-1.801,3.575-2.841
			c1.77-1.037,3.574-1.587,5.407-1.649c1.833-0.061,3.451,0.521,4.857,1.741C299.801,454.67,300.506,457.053,300.506,460.596z
			 M260.18,446.299c0.61-0.487,0.854-1.221,0.733-2.2c-0.123-0.977-0.458-1.833-1.008-2.566c-0.55-0.732-1.254-1.191-2.108-1.374
			c-0.856-0.184-1.649,0.274-2.383,1.374c-0.367,0.49-1.008,1.467-1.925,2.934c-0.917,1.466-1.833,2.964-2.75,4.49
			c-0.917,1.529-1.681,2.842-2.291,3.941c-0.613,1.1-0.733,1.529-0.367,1.283L260.18,446.299z"/>
		<path d="M303.805,372.062c0-0.854,0.702-1.618,2.108-2.291c1.403-0.67,2.475-1.008,3.208-1.008c1.832,0,3.877,0.521,6.141,1.558
			c2.26,1.04,3.391,2.598,3.391,4.674c0,2.08-0.275,3.483-0.824,4.217c-0.551,0.732-1.865,1.1-3.941,1.1
			c-2.199,0-4.432-0.733-6.691-2.2C304.934,376.645,303.805,374.628,303.805,372.062z M314.07,505.688
			c-1.224-12.218-2.264-22.666-3.117-31.344c-0.855-8.676-1.589-15.947-2.199-21.813c-0.613-5.865-1.131-10.539-1.559-14.022
			c-0.429-3.482-0.764-6.108-1.007-7.882c-0.247-1.77-0.43-2.961-0.55-3.574c-0.124-0.609-0.184-0.977-0.184-1.1v-0.733
			c0-1.343,0.579-2.475,1.741-3.391c1.16-0.917,2.352-1.375,3.575-1.375c1.833,0,3.817,0.307,5.957,0.917
			c2.137,0.612,3.575,1.896,4.308,3.849c1.1,5.989,1.861,12.038,2.291,18.146c0.428,6.112,0.793,12.19,1.1,18.239
			c0.305,6.049,0.734,12.129,1.283,18.238c0.551,6.111,1.559,12.16,3.025,18.146c0,0.246,0.092,0.733,0.274,1.467
			c0.183,0.732,0.366,1.529,0.55,2.383c0.184,0.856,0.336,1.649,0.459,2.383c0.119,0.733,0.183,1.223,0.183,1.466v0.367
			c0,0.123,0.06,0.246,0.184,0.366c0,1.467-0.673,2.933-2.017,4.399c-1.346,1.467-2.75,2.076-4.216,1.833
			c-0.366-0.12-1.255-0.335-2.657-0.642c-1.406-0.304-2.355-0.578-2.842-0.825c-0.367-0.12-0.856-0.395-1.467-0.824
			c-0.612-0.427-1.191-0.885-1.741-1.375c-0.55-0.487-1.008-1.037-1.374-1.649C313.703,506.728,313.703,506.178,314.07,505.688z"/>
		<path d="M338.725,472.419c-1.529-0.917-2.598-2.076-3.208-3.482c-0.613-1.403-0.888-2.81-0.825-4.216
			c0.061-1.404,0.336-2.292,0.825-2.658c0.366-0.12,1.191-0.61,2.474-1.467c1.283-0.854,2.046-1.403,2.292-1.649
			c0.12,0,0.274-0.092,0.458-0.275c0.184-0.183,0.336-0.335,0.459-0.458v-3.299c0-6.843-0.398-13.594-1.191-20.255
			c-0.797-6.659-1.191-13.35-1.191-20.071c0-4.399,0.091-8.982,0.274-13.748c0.183-4.766,0.977-9.165,2.383-13.197
			c1.403-4.033,3.635-7.332,6.69-9.898c3.053-2.566,7.453-3.85,13.197-3.85c0.977,0,2.137,0,3.483,0
			c1.343,0,2.595,0.155,3.757,0.458c1.16,0.307,2.168,0.856,3.025,1.65c0.854,0.796,1.283,1.925,1.283,3.391
			c0,2.2-0.521,3.638-1.559,4.308c-1.039,0.673-2.354,1.1-3.941,1.283c-1.589,0.184-3.238,0.43-4.949,0.733
			c-1.712,0.307-3.179,1.254-4.398,2.841c-0.246,0.246-0.55,0.888-0.916,1.925c-0.367,1.04-0.551,1.741-0.551,2.108
			c-0.246,0.856-0.489,2.016-0.732,3.482c-0.246,1.467-0.459,2.933-0.643,4.399c-0.183,1.466-0.366,2.78-0.549,3.94
			c-0.184,1.163-0.275,1.805-0.275,1.925c0,0.123,0,0.581,0,1.375c0,0.796-0.031,1.741-0.092,2.841
			c-0.063,1.1-0.092,2.231-0.092,3.392c0,1.162,0,2.107,0,2.841c0,2.566,0,4.949,0,7.148c0,2.2,0.061,4.371,0.184,6.508
			c0.12,2.139,0.304,4.308,0.55,6.507c0.243,2.199,0.55,4.646,0.917,7.332h1.466l24.745-14.664c1.711-0.366,3.236-0.977,4.583-1.833
			c1.343-0.854,2.87-1.283,4.583-1.283c1.709,0,3.482,0.43,5.315,1.283c1.833,0.856,2.749,2.199,2.749,4.032
			c0,1.347-0.307,2.323-0.916,2.934c-0.613,0.612-1.1,1.466-1.467,2.565c-0.49,0.123-1.406,0.49-2.75,1.101
			c-1.346,0.612-2.262,1.039-2.749,1.282c-0.979,0.613-2.537,1.559-4.674,2.842c-2.14,1.283-4.37,2.629-6.69,4.032
			c-2.322,1.406-4.463,2.721-6.416,3.941c-1.956,1.223-3.238,2.016-3.85,2.383c-0.855,0.612-1.896,1.346-3.115,2.199
			c-1.223,0.856-2.414,1.741-3.574,2.658c-1.163,0.916-2.598,2.048-4.309,3.391v1.833l4.767,15.581
			c-0.123,0.366-0.155,0.765-0.092,1.191c0.06,0.43,0.335,0.765,0.825,1.008l8.615,26.212c0.609,2.2,0.151,4.033-1.375,5.499
			c-1.529,1.467-3.271,2.2-5.225,2.2c-2.199,0-4.339-0.582-6.415-1.741c-2.079-1.16-3.423-2.901-4.032-5.225l-10.082-33.178
			l-0.733-1.466C342.359,473.55,340.25,473.335,338.725,472.419z"/>
		<path d="M427.533,563.061c-0.246-2.565-0.398-5.682-0.458-9.348c-0.063-3.666-0.092-7.516-0.092-11.548
			c0-4.033,0.028-8.129,0.092-12.281c0.06-4.156,0.212-7.945,0.458-11.365v-6.599c-0.613-0.854-1.346-1.741-2.199-2.657
			c-0.857-0.917-2.354-2.75-4.491-5.499c-2.14-2.75-5.164-6.843-9.073-12.281c-3.912-5.437-9.165-13.043-15.764-22.821
			c-2.566-2.687-4.217-4.918-4.949-6.69c-0.733-1.77-0.979-3.208-0.733-4.308c0.243-1.1,0.885-1.894,1.925-2.383
			c1.037-0.487,2.045-0.733,3.024-0.733c2.442,0,4.643,0.55,6.599,1.649c1.953,1.101,3.727,2.507,5.316,4.217
			c1.586,1.712,3.023,3.574,4.307,5.59c1.283,2.017,2.535,3.941,3.758,5.774c0.733,1.1,1.65,2.506,2.75,4.216
			c1.1,1.713,2.199,3.391,3.299,5.041c1.1,1.649,2.443,3.697,4.033,6.141l2.199,2.383v-19.247c0-6.108-0.123-12.066-0.367-17.871
			c-0.246-5.803-0.365-11.7-0.365-17.688c0-1.71,0.609-3.116,1.832-4.217c1.221-1.1,2.687-1.586,4.399-1.466
			c2.077,0.246,3.635,0.613,4.675,1.1c1.036,0.49,2.107,1.467,3.207,2.933c0.977,1.347,1.436,2.933,1.375,4.766
			c-0.063,1.833-0.031,3.606,0.092,5.316c0.486,11.61,0.885,23.188,1.191,34.735c0.303,11.548,0.458,23.127,0.458,34.735
			c-0.123,1.1-0.183,3.328-0.183,6.69c0,3.359,0.027,7.178,0.091,11.456c0.061,4.276,0.12,8.735,0.184,13.381
			c0.06,4.643,0.12,8.891,0.183,12.74c0.061,3.849,0.121,7.025,0.184,9.531c0.061,2.503,0.152,3.694,0.275,3.574
			c0,1.833-0.642,3.177-1.925,4.032c-1.283,0.854-2.841,1.283-4.675,1.283c-2.445,0-4.246-0.338-5.406-1.008
			c-1.163-0.673-2.049-1.59-2.658-2.75c-0.613-1.162-1.04-2.474-1.283-3.94C428.57,566.177,428.143,564.647,427.533,563.061z"/>
	</g>
	<ellipse fill="#30439B" cx="282.228" cy="249.696" rx="0" ry="2.531"/>
	<circle fill="#39FF14" cx="265.14" cy="242.557" r="14.557"/>
	<polygon fill="#30439B" points="320.557,287.038 320.557,287.038 320.557,287.038 	"/>
	<circle fill="#DD1823" cx="311.342" cy="375.013" r="14.557"/>
	<circle fill="#FFA216" cx="265.14" cy="331.001" r="14.557"/>
	<circle fill="#034694" cx="311.342" cy="287.039" r="14.557"/>
</g>
</svg>
